<?xml version="1.0" standalone="no"?><svg xmlns="http://www.w3.org/2000/svg" viewBox="0 0 1440 320"><path fill="#c88421" fill-opacity="1" d="M0,96L26.7,96C53.3,96,107,96,160,128C213.3,160,267,224,320,250.7C373.3,277,427,267,480,250.7C533.3,235,587,213,640,197.3C693.3,181,747,171,800,165.3C853.3,160,907,160,960,138.7C1013.3,117,1067,75,1120,90.7C1173.3,107,1227,181,1280,192C1333.3,203,1387,149,1413,122.7L1440,96L1440,0L1413.3,0C1386.7,0,1333,0,1280,0C1226.7,0,1173,0,1120,0C1066.7,0,1013,0,960,0C906.7,0,853,0,800,0C746.7,0,693,0,640,0C586.7,0,533,0,480,0C426.7,0,373,0,320,0C266.7,0,213,0,160,0C106.7,0,53,0,27,0L0,0Z"></path></svg>